<svg xmlns="http://www.w3.org/2000/svg" width="435" height="384" viewBox="0 0 435 384"><title>Aradhya — Upanishads</title><defs><linearGradient id="diyaClay" x1="0.59" y1="0.01" x2="0.41" y2="0.99"><stop offset="0" stop-color="#C98A4A"/><stop offset="1" stop-color="#8A5A2B"/></linearGradient><linearGradient id="brass" x1="0.59" y1="0.01" x2="0.41" y2="0.99"><stop offset="0" stop-color="#E0A63C"/><stop offset="1" stop-color="#B8862F"/></linearGradient><radialGradient id="ladooBall" cx="0.38" cy="0.32" r="0.85"><stop offset="0" stop-color="#F5B851"/><stop offset="1" stop-color="#D98A22"/></radialGradient></defs><rect width="435" height="384" fill="#F7EEDD"/><rect x="203.39" y="33.02" width="28.22" height="274.18" fill="#A97A55"/><circle cx="217.5" cy="-7.3" r="80.64" fill="#C2A07C"/><circle cx="152.99" cy="41.09" r="56.45" fill="#C2A07C"/><circle cx="282.01" cy="33.02" r="60.48" fill="#C2A07C"/><path d="M0 384V307.2H435V384z" fill="#C9A882"/><path d="M0 384V345.6H435V384z" fill="#A5825C"/><path d="M165.3 307.2C165.3 238.08 269.7 238.08 269.7 307.2z" fill="#D9713F"/><circle cx="217.5" cy="224.64" r="18.43" fill="#EFCBA4"/><path d="M200.1 213.12a18.43 18.43 0 0 1 36.86 0z" fill="#E8E2D6"/><g fill="#D4AF37" opacity="0.3"><g transform="rotate(0 217.5 224.64)"><path d="M217.5 195.84Q224.41 188.16 217.5 180.48Q210.59 188.16 217.5 195.84Z"/></g><g transform="rotate(25.71 217.5 224.64)"><path d="M217.5 195.84Q224.41 188.16 217.5 180.48Q210.59 188.16 217.5 195.84Z"/></g><g transform="rotate(51.43 217.5 224.64)"><path d="M217.5 195.84Q224.41 188.16 217.5 180.48Q210.59 188.16 217.5 195.84Z"/></g><g transform="rotate(77.14 217.5 224.64)"><path d="M217.5 195.84Q224.41 188.16 217.5 180.48Q210.59 188.16 217.5 195.84Z"/></g><g transform="rotate(102.86 217.5 224.64)"><path d="M217.5 195.84Q224.41 188.16 217.5 180.48Q210.59 188.16 217.5 195.84Z"/></g><g transform="rotate(128.57 217.5 224.64)"><path d="M217.5 195.84Q224.41 188.16 217.5 180.48Q210.59 188.16 217.5 195.84Z"/></g><g transform="rotate(154.29 217.5 224.64)"><path d="M217.5 195.84Q224.41 188.16 217.5 180.48Q210.59 188.16 217.5 195.84Z"/></g><g transform="rotate(180 217.5 224.64)"><path d="M217.5 195.84Q224.41 188.16 217.5 180.48Q210.59 188.16 217.5 195.84Z"/></g><g transform="rotate(205.71 217.5 224.64)"><path d="M217.5 195.84Q224.41 188.16 217.5 180.48Q210.59 188.16 217.5 195.84Z"/></g><g transform="rotate(231.43 217.5 224.64)"><path d="M217.5 195.84Q224.41 188.16 217.5 180.48Q210.59 188.16 217.5 195.84Z"/></g><g transform="rotate(257.14 217.5 224.64)"><path d="M217.5 195.84Q224.41 188.16 217.5 180.48Q210.59 188.16 217.5 195.84Z"/></g><g transform="rotate(282.86 217.5 224.64)"><path d="M217.5 195.84Q224.41 188.16 217.5 180.48Q210.59 188.16 217.5 195.84Z"/></g><g transform="rotate(308.57 217.5 224.64)"><path d="M217.5 195.84Q224.41 188.16 217.5 180.48Q210.59 188.16 217.5 195.84Z"/></g><g transform="rotate(334.29 217.5 224.64)"><path d="M217.5 195.84Q224.41 188.16 217.5 180.48Q210.59 188.16 217.5 195.84Z"/></g></g><path d="M78.3 314.88C78.3 268.8 139.2 268.8 139.2 314.88z" fill="#8A9C7A"/><circle cx="108.75" cy="259.2" r="13.82" fill="#EFCBA4"/><path d="M295.8 314.88C295.8 268.8 356.7 268.8 356.7 314.88z" fill="#9C8AA6"/><circle cx="326.25" cy="259.2" r="13.82" fill="#EFCBA4"/><path d="M198.3 324.48C198.3 350.98 236.7 350.98 236.7 324.48Z" fill="url(#diyaClay)"/><ellipse cx="217.5" cy="324.48" rx="19.2" ry="4.22" fill="#753F2C"/><ellipse cx="217.5" cy="324.48" rx="15.36" ry="2.88" fill="#F0B44B"/><path d="M217.5 323.71l1.15 -6.14h-2.3z" fill="#5C3B28"/><path d="M217.5 296.83C226.41 306.19 223.91 319.1 217.5 319.1C211.09 319.1 208.59 306.19 217.5 296.83Z" fill="#FF9F43"/><path d="M217.5 304.4C221.9 309.62 220.58 315.99 217.5 315.99C214.42 315.99 213.1 309.62 217.5 304.4Z" fill="#FDE57E"/><ellipse cx="217.5" cy="311.42" rx="16.13" ry="17.66" fill="#FDE57E" opacity="0.20"/></svg>